<?xml version="1.0" standalone="no"?>
<!DOCTYPE svg PUBLIC "-//W3C//DTD SVG 20010904//EN"
 "http://www.w3.org/TR/2001/REC-SVG-20010904/DTD/svg10.dtd">
<svg version="1.0" xmlns="http://www.w3.org/2000/svg"
 width="500.000000pt" height="500.000000pt" viewBox="0 0 500.000000 500.000000"
 preserveAspectRatio="xMidYMid meet">
<metadata>
Created by potrace 1.11, written by Peter Selinger 2001-2013
</metadata>
<g transform="translate(0.000000,500.000000) scale(0.100000,-0.100000)"
fill="#000000" stroke="none">
<path d="M0 2500 l0 -2500 2500 0 2500 0 0 2500 0 2500 -2500 0 -2500 0 0
-2500z m2558 2111 c51 -11 126 -30 168 -42 101 -30 152 -84 189 -200 14 -44
25 -88 25 -97 0 -32 63 -127 121 -184 36 -35 87 -71 135 -95 71 -35 85 -38
158 -38 73 0 87 3 144 34 38 21 84 57 113 90 41 46 52 54 67 45 23 -15 27 -91
8 -158 -34 -115 -171 -379 -223 -427 -69 -64 -197 -65 -358 -2 -134 52 -140
60 -270 377 -36 88 -64 120 -135 156 -113 57 -339 97 -478 84 -84 -7 -107 -24
-34 -24 65 0 267 -35 356 -61 92 -27 167 -63 195 -93 12 -13 42 -82 66 -154
52 -154 86 -225 149 -309 61 -81 98 -109 247 -188 68 -37 139 -81 157 -98 18
-18 59 -84 90 -147 47 -94 69 -127 127 -185 102 -102 250 -181 421 -225 107
-28 314 -43 439 -32 55 5 102 7 104 6 2 -2 -3 -14 -12 -27 -18 -28 -124 -65
-282 -99 -87 -19 -130 -22 -325 -22 -187 1 -245 4 -344 22 -123 23 -334 74
-561 137 -408 112 -573 116 -960 19 -128 -32 -412 -121 -613 -191 -401 -141
-484 -166 -570 -171 -68 -4 -93 -1 -145 18 -84 31 -157 80 -222 153 -81 89
-74 116 25 88 39 -11 95 -15 190 -15 212 2 315 35 684 223 255 130 315 152
800 295 369 109 402 110 588 15 84 -43 178 -69 248 -69 l45 0 -32 20 c-71 43
-343 188 -363 193 -44 11 -374 -55 -743 -149 -169 -43 -308 -45 -374 -4 l-32
19 43 163 c24 90 50 177 59 194 24 46 91 86 241 144 72 28 150 62 174 76 50
29 80 70 64 86 -10 10 -14 9 -93 -36 -89 -50 -256 2 -305 96 -17 33 -18 263
-1 417 l12 104 120 70 c154 89 341 185 397 202 62 20 199 18 306 -4z m669
-518 c48 -20 102 -45 118 -56 l30 -19 -45 6 c-47 7 -147 52 -190 86 -37 29
-13 24 87 -17z m-1591 -86 c-3 -12 -5 -38 -5 -59 -1 -33 -5 -38 -58 -68 -266
-149 -516 -406 -681 -698 -61 -107 -131 -289 -168 -432 l-32 -125 -43 2 c-70
3 -70 2 -48 100 58 268 198 560 376 787 79 100 232 248 343 333 103 78 298
195 311 187 5 -3 7 -15 5 -27z m2147 -269 c172 -153 327 -360 437 -583 67
-138 140 -345 143 -407 l2 -43 -47 -3 c-55 -4 -45 -21 -108 173 -94 290 -267
561 -486 763 l-75 70 23 46 c13 25 27 46 32 46 4 0 40 -28 79 -62z m-258
-1248 c250 -52 467 -52 725 0 52 11 97 17 100 14 9 -10 -33 -34 -114 -64 -187
-69 -268 -126 -481 -332 -84 -81 -146 -134 -150 -128 -4 6 11 39 34 73 117
181 117 277 -2 332 -28 14 -59 25 -68 25 -60 0 -219 88 -219 120 0 5 19 2 43
-6 23 -8 83 -24 132 -34z m-518 -84 c32 -65 46 -155 41 -254 -12 -189 -108
-294 -219 -236 -65 33 -129 183 -129 303 l0 66 138 83 c75 45 139 82 143 82 3
0 15 -20 26 -44z m1409 -151 c-11 -286 -67 -524 -180 -769 -39 -83 -103 -197
-145 -256 -38 -54 -105 -144 -111 -150 -3 -3 -28 -32 -55 -64 -116 -138 -351
-320 -549 -426 -164 -87 -355 -151 -571 -191 -141 -26 -434 -31 -575 -11 -428
63 -796 245 -1100 544 -104 102 -155 165 -246 298 -185 275 -304 617 -321 924
l-6 109 61 -66 c49 -52 62 -73 62 -98 0 -57 49 -274 86 -380 228 -655 782
-1114 1468 -1215 140 -21 447 -15 576 11 328 65 600 194 850 403 87 73 126
111 219 216 19 21 67 88 107 147 205 304 314 644 314 982 l0 116 53 34 c51 33
52 33 61 13 4 -12 5 -88 2 -171z m-3811 95 c9 -15 79 -49 134 -66 136 -42 296
-27 566 53 12 3 0 -14 -32 -47 -135 -135 -150 -283 -39 -389 20 -19 36 -38 36
-42 0 -5 -23 -1 -52 7 -157 47 -318 154 -489 324 -69 69 -136 140 -149 159
-22 32 -22 33 -2 22 11 -6 24 -16 27 -21z m1465 -39 c134 -58 135 -59 143 -97
20 -91 -10 -245 -60 -313 -75 -98 -179 -67 -245 74 -52 111 -59 272 -18 381
12 30 3 33 180 -45z m1588 -476 c2 -22 -8 -48 -36 -90 -47 -74 -87 -114 -163
-166 -32 -22 -63 -48 -69 -59 -5 -10 -10 -49 -10 -86 0 -87 -25 -141 -101
-215 -221 -218 -583 -312 -951 -250 -107 19 -247 57 -313 86 -16 8 -63 28
-104 45 -125 54 -370 201 -379 228 -6 20 25 15 230 -37 383 -98 612 -134 853
-135 167 -1 250 11 335 46 85 36 159 110 130 128 -15 10 -21 9 -201 -26 -197
-38 -333 -54 -479 -54 -338 0 -603 103 -812 317 -92 93 -151 167 -138 171 5 2
48 -10 97 -27 409 -139 925 -179 1330 -102 207 40 405 108 586 201 86 45 121
57 152 56 37 -1 40 -3 43 -31z m-78 -372 c0 -10 -11 -54 -25 -98 -35 -111 -42
-186 -21 -204 14 -12 26 -12 69 -2 78 19 167 30 183 24 27 -10 13 -32 -83
-123 -132 -126 -201 -176 -265 -190 -81 -17 -215 -74 -345 -146 -65 -37 -125
-72 -133 -80 -27 -24 -82 -41 -185 -60 -136 -24 -441 -25 -574 -1 -254 46
-483 139 -695 281 -100 68 -248 194 -241 206 3 5 18 11 34 15 16 3 42 18 57
31 24 23 26 30 21 77 -3 29 -19 82 -37 119 -33 71 -42 118 -23 125 6 2 53 -37
104 -87 169 -167 266 -239 434 -320 251 -123 519 -169 811 -140 303 29 539
126 675 278 44 48 99 147 99 176 0 19 108 136 126 136 8 0 14 -8 14 -17z"/>
</g>
</svg>
