<?xml version="1.0" standalone="no"?>
<!DOCTYPE svg PUBLIC "-//W3C//DTD SVG 20010904//EN"
 "http://www.w3.org/TR/2001/REC-SVG-20010904/DTD/svg10.dtd">
<svg version="1.0" xmlns="http://www.w3.org/2000/svg"
 width="535.000000pt" height="535.000000pt" viewBox="0 0 535.000000 535.000000"
 preserveAspectRatio="xMidYMid meet">
<metadata>
Created by potrace 1.11, written by Peter Selinger 2001-2013
</metadata>
<g transform="translate(0.000000,535.000000) scale(0.100000,-0.100000)"
fill="#000000" stroke="none">
<path d="M3480 4880 c0 -4 -16 -6 -35 -5 -19 2 -35 0 -35 -4 0 -4 -10 -8 -22
-8 -48 -3 -73 -7 -83 -13 -9 -6 -29 -13 -85 -27 -8 -2 -19 -5 -25 -6 -5 -2
-40 -18 -77 -36 -66 -32 -189 -140 -196 -171 -2 -8 -9 -21 -15 -28 -6 -8 -12
-21 -14 -30 -1 -9 -7 -18 -13 -20 -5 -2 -8 -8 -4 -13 3 -5 0 -9 -6 -9 -6 0 -9
-4 -5 -9 3 -5 1 -13 -5 -16 -6 -4 -27 -39 -47 -78 -19 -40 -38 -74 -42 -77 -3
-3 -13 -18 -21 -33 -14 -28 -35 -48 -134 -132 -74 -62 -123 -110 -135 -133 -7
-12 -17 -22 -24 -22 -7 0 -35 -22 -63 -49 -46 -45 -69 -86 -107 -186 -40 -108
-107 -260 -121 -277 -9 -10 -13 -18 -10 -18 3 0 -2 -7 -10 -16 -9 -8 -14 -19
-11 -24 3 -4 -1 -10 -8 -13 -17 -7 -81 -138 -106 -217 -12 -36 -26 -114 -32
-175 -6 -60 -20 -159 -30 -220 -11 -60 -20 -136 -20 -168 0 -49 -4 -62 -24
-83 -14 -13 -24 -25 -24 -27 0 -1 -11 -27 -25 -57 -14 -30 -39 -107 -56 -170
-37 -139 -70 -210 -113 -245 -138 -111 -181 -167 -198 -258 -9 -50 -7 -69 12
-140 34 -130 34 -141 3 -219 -27 -67 -57 -98 -95 -98 -7 0 -23 -10 -36 -22
-49 -46 -200 -29 -381 43 -41 16 -80 29 -88 29 -8 0 -14 5 -14 11 0 5 -4 8 -9
5 -5 -4 -22 -1 -38 6 -15 6 -31 11 -35 10 -5 -1 -8 2 -8 6 0 8 -7 10 -50 14
-11 1 -20 5 -20 8 0 4 -10 6 -23 5 -12 -1 -26 0 -32 4 -52 30 -296 39 -329 12
-9 -7 -16 -10 -16 -6 0 4 -7 2 -15 -5 -8 -7 -15 -10 -15 -7 0 10 -63 -15 -82
-31 -10 -8 -18 -12 -18 -8 0 4 -20 -7 -44 -23 -158 -109 -189 -235 -99 -401
19 -36 38 -67 42 -70 3 -3 14 -17 24 -32 9 -15 41 -45 70 -67 28 -21 88 -66
132 -100 104 -78 98 -74 121 -88 92 -58 201 -109 301 -143 l118 -40 305 0
c287 0 314 2 440 26 105 20 564 127 730 171 14 3 32 7 40 7 8 1 20 4 25 7 6 3
20 4 33 3 12 0 22 3 22 8 0 6 7 7 16 4 9 -4 22 -2 28 4 7 5 32 12 57 15 24 3
58 7 74 10 252 36 344 46 526 60 270 20 459 47 595 85 l75 21 47 -30 c113 -72
284 -95 528 -72 195 19 546 96 626 137 15 8 28 12 28 8 0 -4 7 -1 15 6 8 7 15
10 15 7 0 -4 20 2 44 13 24 10 47 16 50 13 3 -4 6 -1 6 6 0 8 7 11 15 7 8 -3
15 -2 15 3 0 15 49 22 69 10 10 -7 26 -9 36 -5 15 5 17 16 13 77 -4 57 -11 78
-35 112 -46 64 -124 113 -223 139 -98 26 -240 29 -585 14 -140 -6 -218 -5
-259 3 -33 6 -61 12 -62 14 -2 2 -8 39 -14 83 -12 87 -31 160 -57 220 -9 21
-18 46 -20 56 -1 9 -12 32 -24 52 -11 20 -17 36 -12 36 4 0 3 4 -2 8 -12 8
-71 152 -81 197 -4 17 -27 82 -51 146 -23 64 -46 131 -49 148 -4 17 -11 31
-16 31 -6 0 -8 7 -5 15 4 8 2 17 -4 20 -5 4 -7 10 -4 15 3 5 1 11 -4 15 -6 3
-8 12 -4 20 3 8 0 15 -7 15 -6 0 -10 8 -9 18 2 16 -8 119 -17 167 -12 66 -16
84 -25 125 -6 25 -15 62 -20 82 -9 35 -8 39 27 71 33 30 37 38 36 82 -2 65
-10 101 -33 139 -39 67 -67 163 -78 271 -16 147 -56 343 -85 415 l-24 59 61
42 c64 43 181 148 182 162 0 4 5 11 12 15 10 6 19 36 37 123 5 24 11 27 73 33
198 20 202 19 338 -14 193 -48 298 -40 342 26 14 22 12 26 -34 81 -81 98 -180
180 -273 226 -47 23 -88 46 -91 51 -4 5 -12 5 -18 2 -6 -4 -11 -3 -11 1 0 5
-10 10 -22 11 -13 1 -41 4 -63 7 -22 3 -51 7 -65 9 -48 6 -95 18 -125 34 -35
17 -90 62 -78 62 4 0 -1 7 -11 15 -11 8 -16 15 -11 15 5 0 0 9 -11 20 -10 10
-24 25 -30 32 -22 28 -87 73 -105 74 -10 1 -20 3 -21 4 -7 6 -198 6 -198 0z
m140 -55 c59 -9 132 -49 160 -87 13 -17 17 -27 10 -23 -7 4 -16 2 -21 -6 -8
-11 -12 -10 -21 6 -6 11 -28 37 -48 59 -26 28 -42 37 -54 33 -16 -6 -14 -11
13 -42 17 -19 37 -48 46 -65 8 -16 23 -34 32 -40 13 -8 14 -13 6 -16 -7 -3
-13 -11 -13 -19 0 -7 -7 -19 -16 -26 -15 -12 -14 -15 6 -31 12 -10 26 -16 30
-13 5 3 11 1 15 -5 3 -5 28 -10 54 -10 26 0 52 -5 58 -11 13 -13 33 -4 33 17
0 42 68 -18 85 -76 10 -35 24 -50 40 -44 11 4 12 12 4 32 l-10 27 30 -30 c17
-17 31 -35 31 -41 0 -18 47 -35 59 -21 10 13 -14 77 -29 77 -4 0 -11 7 -14 16
-4 9 16 0 46 -22 29 -21 61 -37 70 -37 10 1 26 -9 36 -22 21 -26 68 -29 109
-7 19 10 25 8 48 -20 15 -18 32 -43 38 -55 6 -13 14 -23 18 -23 4 0 14 -3 23
-6 35 -13 16 40 -31 90 -35 36 -40 43 -18 29 34 -24 93 -85 119 -125 17 -26
17 -26 -15 -37 -18 -6 -49 -11 -71 -11 -34 0 -178 31 -218 47 -8 4 -18 7 -22
8 -5 2 -11 4 -15 5 -5 1 -12 3 -18 5 -5 1 -13 3 -17 4 -16 6 -94 3 -118 -3
-83 -22 -226 -31 -262 -17 -17 6 -38 29 -55 61 -32 57 -63 68 -63 23 0 -16 9
-42 20 -60 11 -19 15 -35 10 -38 -6 -4 -10 -2 -10 2 0 5 -10 23 -23 40 -30 41
-55 31 -32 -13 8 -17 15 -55 15 -91 0 -61 0 -62 -27 -60 -18 1 -28 -3 -29 -13
0 -8 -2 -17 -4 -20 -3 -6 -10 -49 -12 -77 -2 -19 -13 -23 -13 -5 0 4 -3 12 -7
17 -6 11 -19 75 -23 114 -1 13 -11 34 -23 46 -11 12 -24 34 -27 48 -4 15 -11
30 -16 33 -12 7 -11 85 1 159 6 33 12 67 13 75 1 8 -2 17 -8 20 -17 9 -36 -83
-44 -210 -7 -114 -8 -122 -20 -95 -23 53 -2 213 49 384 12 40 18 77 13 82 -16
16 -83 -82 -105 -155 -12 -39 -21 -75 -20 -80 2 -5 -4 -3 -13 4 -8 7 -13 15
-10 18 3 3 -3 15 -14 26 -10 12 -30 40 -43 62 -33 59 -76 106 -89 99 -5 -4
-19 1 -30 11 -18 17 -21 17 -36 1 -11 -11 -13 -17 -5 -17 6 0 34 -46 61 -102
45 -92 52 -116 65 -221 9 -65 18 -124 21 -130 4 -7 -19 15 -49 47 -31 33 -56
65 -56 73 0 7 -4 13 -10 13 -5 0 -10 6 -10 14 0 8 -7 22 -16 30 -8 9 -12 16
-8 16 3 0 1 7 -6 15 -7 8 -9 15 -5 15 4 0 3 6 -2 13 -5 6 -9 26 -8 42 1 32
-18 60 -34 51 -35 -22 -11 -162 39 -234 17 -23 30 -44 30 -47 0 -2 10 -15 23
-27 207 -214 312 -340 272 -324 -11 4 -88 11 -172 16 -85 5 -172 14 -194 20
-50 14 -62 5 -31 -21 30 -24 111 -49 177 -55 28 -3 57 -7 65 -10 8 -3 39 -8
69 -10 60 -4 121 -21 121 -34 0 -8 29 -21 59 -26 7 -1 16 6 18 17 9 34 18 20
21 -33 2 -29 8 -58 13 -65 6 -6 8 -17 5 -22 -4 -5 -2 -12 3 -16 5 -3 8 -14 6
-25 -2 -11 0 -22 5 -25 5 -3 7 -12 3 -20 -3 -8 0 -15 5 -15 6 0 14 -26 18 -57
3 -32 8 -67 11 -78 2 -11 11 -63 19 -115 19 -125 29 -161 70 -249 67 -146 53
-187 -79 -236 -104 -39 -160 -66 -178 -87 -9 -10 -21 -18 -27 -18 -6 0 -14 -9
-17 -21 -4 -12 -12 -18 -21 -15 -7 3 -32 -1 -53 -9 -62 -22 -104 -10 -162 45
-27 27 -49 53 -49 59 0 6 -5 11 -11 11 -5 0 -7 5 -4 10 3 6 1 10 -5 10 -6 0
-8 5 -5 10 3 6 1 10 -5 10 -6 0 -8 5 -5 10 3 6 2 10 -3 10 -6 0 -22 30 -37 68
-15 37 -30 69 -33 72 -4 3 -18 27 -32 54 -23 46 -131 171 -148 171 -4 0 -14 6
-22 13 -70 59 -81 67 -102 63 -5 0 -8 3 -8 7 0 5 -28 21 -62 37 -35 15 -86 39
-114 51 -62 29 -80 30 -94 4 -15 -27 -9 -34 59 -72 32 -18 56 -38 54 -45 -2
-7 -11 -9 -19 -6 -8 3 -14 1 -14 -5 0 -5 -10 -9 -22 -8 -18 1 -24 -5 -26 -27
-3 -21 -7 -26 -16 -18 -8 6 -17 6 -26 0 -12 -8 -9 -15 19 -37 19 -15 44 -36
56 -47 11 -11 16 -17 11 -12 -13 9 -46 9 -46 -1 0 -4 25 -32 55 -62 30 -30 55
-58 55 -63 0 -4 -14 8 -31 28 -29 32 -59 46 -59 27 0 -5 20 -30 45 -56 25 -27
45 -52 45 -56 0 -5 10 -16 22 -24 17 -12 18 -16 6 -16 -8 0 -21 7 -28 15 -14
17 -40 20 -40 5 0 -12 51 -92 65 -102 5 -4 6 -8 1 -8 -5 0 -1 -9 10 -21 10
-12 18 -24 16 -28 -2 -3 9 -21 23 -39 l27 -33 -39 19 c-21 11 -41 19 -45 18
-4 0 -13 7 -20 16 -11 14 -15 14 -25 4 -17 -20 13 -73 59 -103 21 -14 38 -27
38 -29 0 -11 -89 -44 -117 -44 -33 0 -48 -19 -15 -21 36 -1 -22 -18 -66 -18
-35 -1 -43 -4 -40 -18 3 -16 13 -19 97 -26 18 -1 39 -11 47 -21 10 -14 21 -17
43 -13 24 5 29 3 26 -11 -1 -9 3 -20 9 -24 18 -13 -35 -8 -104 8 -36 8 -81 19
-100 23 -19 4 -45 13 -57 19 -12 7 -26 11 -30 10 -4 -1 -17 3 -28 9 -11 6 -37
14 -58 18 -31 6 -37 4 -37 -9 0 -10 5 -14 10 -11 6 3 10 1 10 -5 0 -6 5 -8 10
-5 6 3 10 1 10 -6 0 -7 3 -9 7 -6 3 4 11 0 17 -8 17 -23 197 -83 287 -96 92
-13 280 -7 344 12 87 25 167 72 226 132 32 33 59 64 59 69 0 5 12 1 28 -10 15
-10 42 -25 61 -32 50 -20 87 -55 135 -129 74 -113 163 -206 252 -263 45 -29
132 -58 174 -58 24 0 28 -7 53 -83 15 -46 27 -86 27 -89 0 -6 -32 -1 -60 9 -8
4 -18 5 -23 5 -4 -1 -24 5 -45 14 -20 10 -40 16 -44 16 -5 -1 -8 3 -8 9 0 5
-4 8 -9 5 -5 -4 -11 -3 -13 2 -1 4 -25 25 -52 47 -27 22 -61 50 -74 61 -33 29
-50 43 -102 84 -25 19 -47 38 -48 42 -2 5 -8 6 -13 2 -5 -3 -9 0 -9 5 0 6 -5
11 -11 11 -6 0 -17 6 -24 14 -7 7 -53 26 -102 42 -79 26 -102 29 -218 29 -152
0 -205 -10 -330 -65 -16 -8 -33 -13 -37 -12 -5 1 -8 -3 -8 -9 0 -5 -4 -7 -10
-4 -5 3 -10 1 -10 -5 0 -6 -4 -8 -10 -5 -5 3 -10 1 -10 -4 0 -6 -4 -11 -9 -11
-6 0 -65 -27 -133 -60 -68 -32 -136 -62 -152 -66 -28 -7 -27 -5 21 44 27 29
54 52 59 52 5 0 20 9 34 19 21 17 23 22 12 45 -7 15 -20 26 -31 26 -11 0 -23
9 -26 20 -4 13 -15 20 -31 20 -14 0 -22 -4 -19 -10 3 -5 2 -10 -4 -10 -6 0 -8
-6 -5 -14 3 -8 -4 -16 -18 -21 -34 -10 -118 -12 -118 -3 0 5 -6 8 -12 7 -7 -1
-26 3 -41 9 -43 18 -60 15 -54 -8 3 -13 0 -20 -9 -20 -8 0 -14 -9 -14 -21 0
-11 5 -17 10 -14 6 3 10 2 10 -3 0 -5 14 -12 31 -16 32 -6 32 -5 -7 -49 -6 -7
-10 -22 -9 -35 1 -19 -3 -22 -36 -22 -44 0 -56 -12 -32 -31 17 -15 -24 -20
-242 -31 -44 -3 -84 -6 -90 -7 -5 -2 -17 -3 -25 -2 -13 1 -13 3 1 14 24 19 73
97 96 152 24 57 57 166 55 178 -1 4 3 7 10 7 6 0 8 3 5 7 -4 3 -2 12 4 20 6 7
8 13 4 13 -4 0 -2 7 5 15 6 8 9 18 6 23 -3 6 1 15 8 21 22 19 30 -4 30 -89 1
-71 2 -75 25 -78 29 -4 34 3 62 91 15 48 25 65 32 58 6 -6 15 -11 19 -11 14 0
30 53 29 98 0 23 4 42 10 42 6 0 9 7 5 15 -8 22 13 72 32 77 10 3 18 16 20 32
2 34 41 103 104 183 26 35 48 68 48 74 0 14 -77 2 -107 -17 -12 -8 -24 -14
-26 -14 -5 0 11 126 24 190 6 30 24 77 40 106 31 54 36 69 19 59 -30 -19 32
124 75 172 50 57 49 55 31 65 -11 6 -14 17 -10 36 6 25 5 26 -10 11 -9 -9 -18
-25 -19 -37 -1 -12 -4 -22 -8 -22 -4 0 -13 -16 -19 -36 -7 -19 -35 -63 -64
-97 -46 -54 -104 -134 -158 -214 -33 -50 -59 -155 -56 -223 3 -63 4 -65 30
-67 22 -1 29 3 34 23 3 13 12 24 18 24 16 0 14 -63 -3 -83 -7 -9 -10 -21 -6
-27 3 -5 2 -10 -3 -10 -5 0 -12 -27 -16 -60 -4 -33 -21 -91 -40 -132 -19 -40
-37 -88 -41 -105 -3 -18 -10 -33 -15 -33 -10 0 -23 67 -15 80 3 5 0 18 -7 29
-12 20 -9 56 22 231 5 30 17 114 25 185 8 72 22 155 30 185 18 62 56 153 68
158 4 2 5 8 1 13 -3 5 0 9 5 9 6 0 11 6 11 14 0 8 4 16 9 18 20 7 105 168 146
277 60 159 80 197 135 256 26 27 67 73 91 101 24 29 53 56 64 62 58 29 271
253 273 286 0 5 4 12 9 15 6 3 35 58 67 121 79 160 117 196 250 240 89 29 264
71 294 71 13 -1 31 3 40 8 9 5 23 8 32 6 8 -1 35 -6 60 -10z m-277 -540 c-2
-19 1 -35 5 -35 5 0 8 -12 6 -27 -1 -15 2 -35 7 -44 6 -11 5 -20 -1 -24 -5 -3
-10 -2 -10 3 0 5 -11 14 -26 20 -24 11 -24 13 -10 34 9 12 16 42 16 65 0 24 4
43 9 43 4 0 7 -16 4 -35z m155 -200 c0 -11 -6 3 -14 30 -7 28 -13 75 -13 105
1 53 2 52 14 -30 7 -47 13 -94 13 -105z m264 156 c-5 -3 -12 -13 -15 -21 -3
-8 -6 0 -6 19 -1 29 1 32 14 21 9 -7 12 -16 7 -19z m73 -21 c-3 -5 -10 -10
-16 -10 -5 0 -9 5 -9 10 0 6 7 10 16 10 8 0 12 -4 9 -10z m-392 -128 c6 -30 5
-32 -9 -18 -10 10 -13 24 -9 37 8 25 10 23 18 -19z m64 -74 c-3 -8 -6 -5 -6 6
-1 11 2 17 5 13 3 -3 4 -12 1 -19z m17 -44 c10 -25 -1 -29 -14 -5 -6 12 -7 21
-1 21 5 0 12 -7 15 -16z m62 -68 c14 5 12 2 -6 -13 -25 -21 -39 -16 -40 16 0
10 3 11 14 2 7 -6 22 -8 32 -5z m-1382 -718 c-8 -24 -19 -52 -26 -63 -6 -11
-25 -45 -40 -75 -16 -30 -26 -46 -22 -35 4 11 6 28 6 38 0 9 4 17 9 17 6 0 7
5 4 10 -3 6 1 17 9 26 9 9 14 20 11 25 -4 5 -2 9 2 9 5 0 19 20 31 45 27 57
34 58 16 3z m377 -75 c13 -16 12 -17 -3 -4 -17 13 -22 21 -14 21 2 0 10 -8 17
-17z m-428 -163 c-3 -11 -9 -17 -15 -14 -5 3 -5 11 1 18 6 7 7 17 3 21 -4 5
-2 5 5 2 6 -4 9 -16 6 -27z m97 -47 c-1 -5 -14 -23 -30 -42 -25 -30 -28 -31
-23 -10 7 27 54 73 53 52z m1506 -330 c3 -27 12 -80 18 -119 9 -54 9 -71 0
-67 -6 2 -9 15 -6 29 2 13 0 24 -5 24 -15 0 -53 36 -53 49 0 6 -4 11 -10 11
-6 0 -5 10 2 25 9 19 9 28 0 37 -9 9 -7 17 10 35 12 13 25 23 29 23 4 0 11
-21 15 -47z m77 -346 c-5 -8 -8 -7 -11 1 -2 7 -9 9 -14 6 -7 -4 -8 -2 -4 4 4
6 13 9 21 6 8 -4 12 -11 8 -17z m-1056 -237 c-9 -25 -9 -33 5 -47 14 -13 22
-14 42 -5 21 9 24 9 19 -3 -7 -20 -3 -20 -248 11 -22 3 -50 5 -62 5 -16 -1
-21 4 -16 15 3 8 8 12 11 10 3 -3 11 -1 19 5 10 9 13 8 13 -4 0 -20 28 -26 58
-13 17 7 26 6 31 -2 13 -21 83 -4 111 28 14 17 26 30 27 30 1 0 -4 -13 -10
-30z m-1090 -14 c-11 -28 17 -36 123 -37 251 -2 248 -30 -3 -35 -188 -4 -210
-11 -187 -54 34 -63 99 -87 153 -58 12 6 58 15 103 19 87 8 148 32 192 76 l26
26 180 -6 c100 -4 213 -13 251 -20 39 -8 97 -18 130 -21 130 -15 130 -15 5
-60 -88 -32 -118 -39 -127 -30 -9 9 -26 8 -70 -2 -31 -7 -80 -16 -108 -20 -27
-3 -54 -8 -58 -11 -9 -6 -89 -14 -149 -15 -21 -1 -38 -5 -38 -9 0 -4 -8 -6
-17 -4 -10 1 -23 -1 -29 -6 -6 -5 -19 -10 -30 -12 -10 -2 -27 -7 -36 -11 -9
-4 -22 -9 -30 -11 -29 -6 -78 -30 -78 -37 0 -4 -6 -8 -14 -8 -7 0 -35 -23 -61
-51 -45 -48 -47 -53 -31 -65 16 -11 22 -8 48 22 17 19 36 34 43 34 7 0 15 4
17 9 7 18 158 60 261 72 59 7 107 16 107 20 0 4 9 5 21 2 17 -5 14 -9 -21 -24
-39 -17 -52 -47 -19 -42 35 5 168 50 181 61 8 6 17 9 20 6 5 -4 24 2 103 32
11 4 22 8 25 8 3 1 16 8 30 16 14 7 26 13 27 12 3 -2 21 5 108 39 52 20 70 32
69 46 0 17 14 18 190 23 417 11 498 7 637 -28 70 -18 140 -33 155 -33 l29 -2
-27 -4 c-34 -5 -36 -18 -5 -34 12 -7 24 -15 27 -18 3 -3 23 -15 44 -26 40 -20
166 -131 166 -145 0 -18 -193 56 -210 80 -3 4 -15 10 -27 14 -13 4 -23 11 -23
15 0 4 -16 8 -35 9 -54 4 -44 -18 35 -77 102 -76 200 -123 260 -125 33 -2 77
17 92 39 4 5 6 1 6 -10 -1 -11 2 -32 5 -47 5 -17 3 -28 -3 -28 -5 0 -10 4 -10
9 0 6 -9 8 -20 6 -11 -2 -22 0 -25 5 -3 5 -17 7 -30 4 -14 -2 -25 0 -25 6 0 6
-6 10 -12 9 -7 -1 -20 1 -28 4 -32 12 -111 37 -121 37 -5 0 -62 21 -127 46
-175 69 -261 84 -484 84 -178 0 -278 -11 -305 -32 -26 -21 1 -25 129 -21 73 3
174 0 223 -5 51 -5 94 -6 99 -1 6 5 18 9 28 9 33 0 212 -64 233 -84 20 -18 20
-18 -1 -12 -11 4 -42 8 -68 10 -25 2 -52 8 -59 14 -25 19 -543 31 -626 14 -42
-9 -54 -32 -17 -32 14 0 26 -3 26 -7 0 -5 25 -6 55 -5 30 2 55 0 55 -5 0 -5
26 -8 58 -8 31 1 62 -1 67 -4 6 -3 91 -7 190 -8 159 -2 230 -6 230 -13 0 -1 9
-3 20 -4 11 -1 36 -8 55 -14 19 -6 51 -13 70 -15 19 -3 42 -7 50 -10 123 -50
264 -72 295 -47 14 12 54 6 42 -7 -4 -3 -2 -12 4 -20 6 -7 8 -13 5 -13 -12 0
18 -26 49 -43 l30 -15 -63 -7 c-34 -4 -64 -11 -67 -15 -8 -13 -55 2 -55 17 0
12 -14 13 -77 9 -43 -3 -163 -8 -268 -11 -197 -6 -345 -21 -345 -36 0 -5 -7
-6 -15 -3 -8 4 -15 1 -15 -6 0 -7 -6 -10 -14 -7 -7 3 -23 -1 -34 -8 -10 -8
-22 -11 -26 -8 -3 3 -6 0 -6 -7 0 -7 -3 -11 -6 -7 -9 9 -41 -27 -36 -40 2 -7
-6 -17 -18 -21 -75 -28 125 -57 320 -48 74 4 149 7 165 6 17 -1 64 -2 105 -2
l75 0 -49 -25 c-42 -21 -47 -27 -34 -39 12 -12 35 -7 173 41 87 30 168 55 179
55 12 0 75 18 141 41 66 22 128 41 138 42 9 1 17 4 17 7 0 3 11 6 24 6 14 0
22 -4 20 -8 -3 -5 -9 -6 -14 -3 -4 3 -10 2 -12 -2 -8 -19 -510 -201 -600 -218
-21 -4 -38 -11 -38 -17 0 -5 -4 -7 -8 -4 -5 3 -20 -1 -33 -8 -14 -7 -33 -12
-42 -10 -9 1 -17 -1 -17 -5 0 -4 -6 -8 -12 -8 -7 -1 -73 -10 -145 -22 -73 -12
-136 -20 -140 -19 -5 1 -42 -1 -83 -5 -41 -4 -147 -11 -235 -17 -88 -6 -218
-19 -290 -30 -82 -11 -132 -14 -136 -8 -7 12 -207 -29 -229 -47 -8 -6 -53 -20
-99 -30 l-84 -19 -15 22 c-8 12 -22 22 -31 22 -12 0 -10 5 8 19 37 28 19 45
-40 37 -49 -7 -169 11 -169 25 0 4 16 13 35 19 28 9 39 9 50 0 12 -10 36 -7
117 15 57 16 105 32 106 37 2 4 8 5 13 2 6 -3 16 0 24 6 8 7 15 9 15 6 0 -4 6
-4 12 0 7 5 19 9 28 10 8 1 26 5 40 9 14 4 37 8 53 9 15 0 27 4 27 7 0 4 89 7
198 7 260 0 242 -1 242 21 0 15 -12 21 -62 30 -181 33 -396 22 -603 -31 -66
-17 -126 -31 -132 -31 -7 0 -13 -5 -13 -10 0 -5 -7 -7 -15 -4 -8 4 -17 2 -20
-4 -4 -5 -11 -7 -16 -4 -5 4 -9 1 -9 -6 0 -7 -3 -9 -7 -6 -3 4 -12 2 -19 -3
-6 -6 -16 -10 -20 -9 -5 1 -16 0 -24 -3 -130 -48 -133 -48 -196 -42 -35 4 -64
10 -64 13 0 3 -22 7 -50 8 -92 2 -130 6 -130 12 0 3 -18 7 -40 8 -68 2 -90 5
-90 12 0 4 -8 8 -17 9 -37 4 -51 8 -65 20 -8 6 -25 13 -39 14 -13 2 -26 6 -29
9 -3 3 -38 20 -77 39 -68 31 -74 36 -95 87 -26 63 -43 70 -34 13 l6 -40 -40
21 c-34 18 -39 25 -34 45 8 31 -16 32 -51 2 -20 -17 -25 -31 -25 -68 0 -50 11
-70 76 -132 38 -37 145 -108 162 -108 4 0 18 -6 32 -13 63 -33 232 -76 335
-87 148 -14 216 -17 221 -8 3 5 18 8 35 8 16 0 29 5 29 10 0 20 151 1 212 -27
l57 -26 -25 -14 c-15 -7 -30 -10 -35 -7 -5 3 -9 1 -9 -5 0 -5 -19 -12 -42 -16
-65 -11 -71 -12 -100 -24 -59 -22 -381 -81 -508 -92 -134 -11 -276 -7 -400 12
-104 16 -324 95 -342 123 -4 6 -8 7 -8 2 0 -6 -7 -1 -15 10 -8 10 -15 15 -15
9 0 -6 -3 -6 -8 1 -8 11 -100 74 -109 74 -16 0 -166 132 -234 207 -74 82 -107
169 -90 244 16 70 93 126 236 172 104 33 118 36 195 38 95 2 201 -24 548 -132
72 -23 111 -29 178 -29 47 0 95 5 107 12 34 18 88 12 104 -12 8 -11 18 -18 22
-16 4 3 18 -4 29 -15 12 -10 24 -19 27 -19 13 1 65 -31 65 -40 0 -6 6 -10 14
-10 8 0 16 -3 18 -7 7 -17 80 -73 93 -73 8 0 15 9 15 20 0 20 0 20 51 0 28
-11 72 -21 97 -23 41 -2 47 1 47 18 0 15 -12 24 -50 36 -61 21 -67 34 -15 34
22 0 40 -3 40 -7 0 -3 33 -9 73 -13 93 -9 181 10 185 40 2 18 11 20 85 21 85
2 115 5 132 16 6 3 96 6 200 7 175 1 226 4 295 16 14 3 42 8 63 11 24 4 37 12
37 22 0 13 -12 14 -82 8 -46 -5 -200 -10 -342 -12 -143 -2 -262 -8 -265 -12
-9 -13 -61 -21 -67 -10 -3 5 -30 6 -62 2 -89 -11 -201 0 -267 26 -16 7 -79 13
-140 15 -60 2 -121 8 -135 14 -19 8 13 9 130 4 328 -16 624 -4 606 25 -2 4
102 7 232 8 270 1 372 9 372 29 0 7 -8 16 -17 18 -11 3 -7 5 10 6 20 1 27 6
27 22 0 11 -4 18 -9 14 -5 -3 -12 -2 -15 3 -2 4 -104 7 -225 7 -122 0 -221 2
-221 5 0 11 -137 5 -151 -6 -15 -12 -287 -18 -275 -6 4 3 48 6 99 7 91 0 92 0
92 25 l0 25 -155 -1 c-85 0 -177 -4 -205 -7 -27 -3 -63 -7 -80 -9 -16 -2 -35
-6 -41 -10 -6 -4 -23 -5 -37 -2 -15 2 -27 1 -27 -4 0 -4 -18 -8 -39 -8 -22 0
-46 -6 -54 -12 -18 -15 -10 -59 12 -65 9 -3 -12 -5 -46 -6 l-61 -1 20 53 c20
51 21 129 3 192 -6 19 -2 20 63 17 56 -3 86 2 158 27 49 16 105 33 124 36 19
4 41 12 48 17 6 6 12 8 12 5 0 -4 17 0 38 7 20 7 43 11 50 9 6 -3 12 0 12 6 0
6 9 11 20 11 38 0 90 28 90 48 0 43 -20 42 -195 -3 -92 -25 -172 -50 -177 -57
-4 -7 -8 -9 -8 -3 0 5 -5 4 -11 -2 -6 -6 -18 -9 -25 -6 -8 3 -14 0 -14 -6 0
-6 -3 -10 -7 -10 -5 1 -11 0 -15 -1 -5 -1 -12 -4 -18 -5 -5 -1 -11 -4 -12 -5
-5 -5 -53 -12 -86 -13 -49 -1 -64 25 -56 98 3 33 7 73 8 88 2 17 19 44 47 72
44 45 66 57 56 31z m1646 -16 c18 0 38 -4 45 -9 9 -5 -12 -9 -53 -9 -66 0 -66
0 -49 20 11 11 20 15 22 9 2 -6 18 -11 35 -11z m-299 -19 c3 -5 -6 -11 -21
-14 -26 -5 -26 -4 -8 9 22 17 22 17 29 5z m636 -26 c31 -1 70 -9 90 -20 19
-10 46 -21 60 -26 24 -7 24 -7 -5 -8 -34 -1 -241 52 -253 64 -4 4 7 4 23 0 17
-5 55 -9 85 -10z m349 -197 c1 -9 8 -24 17 -32 32 -32 7 -36 -28 -4 -39 36
-120 81 -144 81 -7 0 -14 6 -14 14 0 7 10 13 23 13 12 0 40 9 62 19 l40 18 22
-46 c12 -25 22 -54 22 -63z m-2189 -303 c11 -13 4 -15 -51 -15 -42 0 -59 3
-50 9 8 5 19 7 26 5 9 -4 38 4 61 15 1 1 7 -6 14 -14z m-225 -95 c-7 -12 -42
-12 -70 0 -15 6 -8 9 28 9 30 1 46 -3 42 -9z m2970 -71 c-50 -15 -65 -16 -88
-6 -26 11 -23 12 45 18 40 3 80 6 88 6 8 1 -12 -7 -45 -18z m-348 5 c-3 -3
-12 -4 -19 -1 -8 3 -5 6 6 6 11 1 17 -2 13 -5z m-3247 -243 c-1 -13 -4 -12
-15 3 -8 11 -15 27 -15 35 1 13 4 12 15 -3 8 -11 15 -27 15 -35z m100 -33 c0
-5 4 -7 9 -3 5 3 24 -8 42 -24 18 -17 59 -44 91 -61 32 -17 58 -33 58 -35 0
-6 -102 34 -116 46 -6 5 -14 6 -17 2 -4 -3 -7 -1 -7 5 0 7 -4 12 -9 12 -8 0
-81 68 -81 76 0 2 7 1 15 -2 8 -4 15 -10 15 -16z m1010 -278 c0 -5 -4 -10 -10
-10 -5 0 -10 5 -10 10 0 6 5 10 10 10 6 0 10 -4 10 -10z"/>
<path d="M3619 4648 c-13 -28 -22 -53 -21 -56 2 -3 -2 -8 -8 -12 -26 -16 -70
-281 -51 -309 5 -9 18 -11 33 -8 20 5 25 13 23 34 -1 19 5 32 19 40 19 10 21
21 22 105 2 99 15 168 41 207 14 22 14 25 -3 38 -26 19 -28 18 -55 -39z"/>
<path d="M2596 3983 c-12 -13 -5 -20 50 -49 50 -26 164 -121 164 -136 0 -15
73 -127 86 -132 22 -8 27 16 14 64 -14 52 -40 91 -98 146 -63 61 -196 127
-216 107z"/>
<path d="M2575 3823 c7 -32 51 -73 151 -143 38 -28 81 -64 94 -82 l23 -33 -34
31 c-81 76 -231 127 -309 107 -45 -12 -51 -33 -10 -33 51 0 148 -29 194 -57
47 -30 65 -48 121 -118 22 -27 45 -54 52 -58 7 -4 13 -16 13 -25 0 -10 -3 -13
-8 -7 -7 10 -17 16 -100 63 -39 22 -72 24 -72 4 0 -8 186 -151 199 -153 15 -1
128 -142 177 -222 29 -48 51 -87 49 -87 -5 0 0 -7 66 -82 75 -86 147 -95 364
-43 125 29 140 36 132 59 -9 22 -83 21 -176 -4 -106 -28 -163 -34 -204 -21
-42 14 -102 78 -124 130 -8 20 -30 57 -49 82 -19 26 -34 49 -34 51 0 7 -69 86
-126 144 -43 43 -48 53 -35 61 14 9 14 14 -2 48 -14 30 -15 40 -5 46 10 6 8
20 -7 66 -24 70 -66 112 -176 177 -43 26 -96 65 -118 87 -48 46 -55 48 -46 12z"/>
<path d="M2996 3372 c-2 -4 13 -26 34 -47 22 -22 39 -44 40 -50 1 -5 27 -32
58 -58 31 -26 89 -75 127 -108 129 -112 232 -155 311 -129 44 15 53 22 79 67
24 41 10 62 -26 42 -13 -7 -33 -14 -44 -16 -11 -2 -21 -7 -23 -11 -4 -11 -108
3 -159 22 -58 21 -99 50 -222 158 -122 108 -167 142 -175 130z"/>
<path d="M3045 1310 c-10 -16 2 -27 37 -35 45 -9 566 -11 601 -2 35 10 30 30
-9 38 -50 11 -622 10 -629 -1z"/>
<path d="M457 1295 c-123 -25 -187 -85 -187 -174 0 -42 55 -181 71 -181 5 0 9
-5 9 -11 0 -13 71 -99 83 -99 5 0 15 -7 24 -15 22 -22 130 -95 141 -95 5 0 21
-9 36 -21 15 -11 34 -22 44 -24 9 -2 18 -4 20 -5 1 -2 5 -3 10 -4 4 -1 13 -5
20 -9 6 -5 17 -5 22 -2 6 3 10 2 10 -3 0 -12 90 -38 210 -59 138 -24 456 -26
470 -3 13 21 -18 46 -54 44 -17 -1 -34 0 -39 3 -9 6 -104 13 -174 13 -24 1
-43 4 -43 9 0 4 -18 7 -40 6 -22 -1 -40 1 -40 5 0 4 -12 8 -27 8 -16 0 -41 3
-58 6 -16 4 -46 9 -65 12 -116 19 -284 89 -376 156 -132 98 -213 247 -170 312
15 24 104 71 114 61 3 -3 11 0 19 6 7 6 22 9 33 6 11 -3 22 -2 25 3 2 4 63 7
135 6 114 -1 134 1 147 17 13 14 14 20 4 30 -18 18 -288 20 -374 2z"/>
<path d="M3210 1049 c0 -9 7 -22 15 -29 19 -16 19 0 0 26 -12 16 -14 16 -15 3z"/>
</g>
</svg>
